<mxfile host="app.diagrams.net" agent="Mozilla/5.0 (Windows NT 10.0; Win64; x64; rv:133.0) Gecko/20100101 Firefox/133.0" version="25.0.3">
  <diagram name="Page-1" id="JuPMozni5-n1VKuYlj7A">
    <mxGraphModel dx="1114" dy="574" grid="1" gridSize="10" guides="1" tooltips="1" connect="1" arrows="1" fold="1" page="1" pageScale="1" pageWidth="850" pageHeight="1100" math="0" shadow="0">
      <root>
        <mxCell id="0" />
        <mxCell id="1" parent="0" />
        <mxCell id="6woV-djoC07wfxO0Y2AX-20" value="&lt;font style=&quot;font-size: 47px;&quot;&gt;Complete Work Flow Process&lt;/font&gt;" style="text;html=1;align=center;verticalAlign=middle;resizable=0;points=[];autosize=1;strokeColor=none;fillColor=none;" vertex="1" parent="1">
          <mxGeometry x="122" y="50" width="640" height="70" as="geometry" />
        </mxCell>
        <mxCell id="6woV-djoC07wfxO0Y2AX-21" value="Start" style="whiteSpace=wrap;strokeWidth=5;fontSize=24;" vertex="1" parent="1">
          <mxGeometry x="240" y="180" width="390" height="49" as="geometry" />
        </mxCell>
        <mxCell id="6woV-djoC07wfxO0Y2AX-22" value="Honble MP Recommends a Work in a District" style="whiteSpace=wrap;strokeWidth=5;fontSize=24;" vertex="1" parent="1">
          <mxGeometry x="240" y="280" width="400" height="67" as="geometry" />
        </mxCell>
        <mxCell id="6woV-djoC07wfxO0Y2AX-23" value="District known as IDA in eSAKSHI Receives the Work in portal" style="whiteSpace=wrap;strokeWidth=5;fontSize=24;" vertex="1" parent="1">
          <mxGeometry x="240" y="397" width="400" height="84" as="geometry" />
        </mxCell>
        <mxCell id="6woV-djoC07wfxO0Y2AX-24" value="IDA sends the work for feasibility to desired Agency knows as IA" style="whiteSpace=wrap;strokeWidth=5;fontSize=24;" vertex="1" parent="1">
          <mxGeometry x="240" y="531" width="400" height="84" as="geometry" />
        </mxCell>
        <mxCell id="6woV-djoC07wfxO0Y2AX-25" value="IA conducts the feasibility on ground and returns the same to IDA" style="whiteSpace=wrap;strokeWidth=5;fontSize=24;" vertex="1" parent="1">
          <mxGeometry x="240" y="665" width="400" height="84" as="geometry" />
        </mxCell>
        <mxCell id="6woV-djoC07wfxO0Y2AX-26" value="IDA sanctions the work to IA" style="whiteSpace=wrap;strokeWidth=5;fontSize=24;" vertex="1" parent="1">
          <mxGeometry x="240" y="799" width="400" height="67" as="geometry" />
        </mxCell>
        <mxCell id="6woV-djoC07wfxO0Y2AX-27" value="IA executes the work on ground" style="whiteSpace=wrap;strokeWidth=5;fontSize=24;" vertex="1" parent="1">
          <mxGeometry x="240" y="916" width="400" height="67" as="geometry" />
        </mxCell>
        <mxCell id="6woV-djoC07wfxO0Y2AX-28" value="IA initiates Fund Disbursement" style="whiteSpace=wrap;strokeWidth=5;fontSize=24;" vertex="1" parent="1">
          <mxGeometry x="240" y="1032" width="400" height="67" as="geometry" />
        </mxCell>
        <mxCell id="6woV-djoC07wfxO0Y2AX-29" value="IA Marks the Work As Complete" style="whiteSpace=wrap;strokeWidth=5;fontSize=24;" vertex="1" parent="1">
          <mxGeometry x="240" y="1149" width="400" height="67" as="geometry" />
        </mxCell>
        <mxCell id="6woV-djoC07wfxO0Y2AX-30" value="End" style="whiteSpace=wrap;strokeWidth=5;fontSize=24;" vertex="1" parent="1">
          <mxGeometry x="374" y="1266" width="136" height="49" as="geometry" />
        </mxCell>
        <mxCell id="6woV-djoC07wfxO0Y2AX-31" value="" style="curved=1;startArrow=none;endArrow=block;exitX=0.5;exitY=1;entryX=0.5;entryY=0;rounded=0;strokeWidth=5;fontSize=24;" edge="1" parent="1" target="6woV-djoC07wfxO0Y2AX-22">
          <mxGeometry relative="1" as="geometry">
            <Array as="points" />
            <mxPoint x="435" y="230" as="sourcePoint" />
          </mxGeometry>
        </mxCell>
        <mxCell id="6woV-djoC07wfxO0Y2AX-32" value="" style="curved=1;startArrow=none;endArrow=block;exitX=0.5;exitY=0.99;entryX=0.5;entryY=0;rounded=0;strokeWidth=5;fontSize=24;" edge="1" parent="1" source="6woV-djoC07wfxO0Y2AX-22" target="6woV-djoC07wfxO0Y2AX-23">
          <mxGeometry relative="1" as="geometry">
            <Array as="points" />
          </mxGeometry>
        </mxCell>
        <mxCell id="6woV-djoC07wfxO0Y2AX-33" value="" style="curved=1;startArrow=none;endArrow=block;exitX=0.5;exitY=1;entryX=0.5;entryY=0;rounded=0;strokeWidth=5;fontSize=24;" edge="1" parent="1" source="6woV-djoC07wfxO0Y2AX-23" target="6woV-djoC07wfxO0Y2AX-24">
          <mxGeometry relative="1" as="geometry">
            <Array as="points" />
          </mxGeometry>
        </mxCell>
        <mxCell id="6woV-djoC07wfxO0Y2AX-34" value="" style="curved=1;startArrow=none;endArrow=block;exitX=0.5;exitY=1;entryX=0.5;entryY=0;rounded=0;strokeWidth=5;fontSize=24;" edge="1" parent="1" source="6woV-djoC07wfxO0Y2AX-24" target="6woV-djoC07wfxO0Y2AX-25">
          <mxGeometry relative="1" as="geometry">
            <Array as="points" />
          </mxGeometry>
        </mxCell>
        <mxCell id="6woV-djoC07wfxO0Y2AX-35" value="" style="curved=1;startArrow=none;endArrow=block;exitX=0.5;exitY=1;entryX=0.5;entryY=0;rounded=0;strokeWidth=5;fontSize=24;" edge="1" parent="1" source="6woV-djoC07wfxO0Y2AX-25" target="6woV-djoC07wfxO0Y2AX-26">
          <mxGeometry relative="1" as="geometry">
            <Array as="points" />
          </mxGeometry>
        </mxCell>
        <mxCell id="6woV-djoC07wfxO0Y2AX-36" value="" style="curved=1;startArrow=none;endArrow=block;exitX=0.5;exitY=1;entryX=0.5;entryY=0;rounded=0;strokeWidth=5;fontSize=24;" edge="1" parent="1" source="6woV-djoC07wfxO0Y2AX-26" target="6woV-djoC07wfxO0Y2AX-27">
          <mxGeometry relative="1" as="geometry">
            <Array as="points" />
          </mxGeometry>
        </mxCell>
        <mxCell id="6woV-djoC07wfxO0Y2AX-37" value="" style="curved=1;startArrow=none;endArrow=block;exitX=0.5;exitY=0.99;entryX=0.5;entryY=0.01;rounded=0;strokeWidth=5;fontSize=24;" edge="1" parent="1" source="6woV-djoC07wfxO0Y2AX-27" target="6woV-djoC07wfxO0Y2AX-28">
          <mxGeometry relative="1" as="geometry">
            <Array as="points" />
          </mxGeometry>
        </mxCell>
        <mxCell id="6woV-djoC07wfxO0Y2AX-38" value="" style="curved=1;startArrow=none;endArrow=block;exitX=0.5;exitY=1;entryX=0.5;entryY=0;rounded=0;strokeWidth=5;fontSize=24;" edge="1" parent="1" source="6woV-djoC07wfxO0Y2AX-28" target="6woV-djoC07wfxO0Y2AX-29">
          <mxGeometry relative="1" as="geometry">
            <Array as="points" />
          </mxGeometry>
        </mxCell>
        <mxCell id="6woV-djoC07wfxO0Y2AX-39" value="" style="curved=1;startArrow=none;endArrow=block;exitX=0.5;exitY=0.99;entryX=0.5;entryY=-0.01;rounded=0;strokeWidth=5;fontSize=24;" edge="1" parent="1" source="6woV-djoC07wfxO0Y2AX-29" target="6woV-djoC07wfxO0Y2AX-30">
          <mxGeometry relative="1" as="geometry">
            <Array as="points" />
          </mxGeometry>
        </mxCell>
        <mxCell id="6woV-djoC07wfxO0Y2AX-42" value="&lt;font style=&quot;font-size: 24px;&quot;&gt;Phase - I&lt;/font&gt;" style="swimlane;horizontal=0;whiteSpace=wrap;html=1;startSize=23;fillColor=#fff2cc;strokeColor=#d6b656;" vertex="1" parent="1">
          <mxGeometry x="180" y="160" width="520" height="210" as="geometry" />
        </mxCell>
        <mxCell id="6woV-djoC07wfxO0Y2AX-43" value="&lt;font style=&quot;font-size: 24px;&quot;&gt;Phase - II&lt;/font&gt;" style="swimlane;horizontal=0;whiteSpace=wrap;html=1;startSize=23;fillColor=#d5e8d4;strokeColor=#82b366;" vertex="1" parent="1">
          <mxGeometry x="182" y="390" width="520" height="240" as="geometry" />
        </mxCell>
        <mxCell id="6woV-djoC07wfxO0Y2AX-44" value="&lt;font style=&quot;font-size: 24px;&quot;&gt;Phase - III&lt;/font&gt;" style="swimlane;horizontal=0;whiteSpace=wrap;html=1;startSize=23;fillColor=#ffe6cc;strokeColor=#d79b00;" vertex="1" parent="1">
          <mxGeometry x="180" y="650" width="520" height="230" as="geometry" />
        </mxCell>
        <mxCell id="6woV-djoC07wfxO0Y2AX-45" value="&lt;font style=&quot;font-size: 24px;&quot;&gt;Phase - IV&lt;/font&gt;" style="swimlane;horizontal=0;whiteSpace=wrap;html=1;startSize=23;fillColor=#dae8fc;strokeColor=#6c8ebf;" vertex="1" parent="1">
          <mxGeometry x="180" y="900" width="520" height="340" as="geometry" />
        </mxCell>
      </root>
    </mxGraphModel>
  </diagram>
</mxfile>
